<svg xmlns="http://www.w3.org/2000/svg">
<!-- <<<GITHUB>>> -->
<symbol id="more" viewBox="0 0 40 40" >
<path d="M36.6667 5H8.33333C7.44928 5 6.60143 5.35119 5.97631 5.97631C5.35119 6.60143 5 7.44928 5 8.33333V15H8.33333V8.33333H36.6667V31.6667H8.33333V25H5V31.6667C5 32.5507 5.35119 33.3986 5.97631 34.0237C6.60143 34.6488 7.44928 35 8.33333 35H36.6667C37.5507 35 38.3986 34.6488 39.0237 34.0237C39.6488 33.3986 40 32.5507 40 31.6667V8.33333C40 7.44928 39.6488 6.60143 39.0237 5.97631C38.3986 5.35119 37.5507 5 36.6667 5ZM11.6667 25V21.6667H0V18.3333H11.6667V15L18.3333 20L11.6667 25ZM33.3333 21.6667H21.6667V18.3333H33.3333V21.6667ZM33.3333 15H21.6667V11.6667H33.3333V15ZM28.3333 28.3333H21.6667V25H28.3333V28.3333Z" />
</symbol>
<!-- <<<GITHUB>>> -->
<symbol id="github" viewBox="0 0 40 40" >
<g clip-path="url(#clip0_49_6)">
<path d="M20 0.494995C8.95 0.494995 0 9.45 0 20.495C0 29.3333 5.73 36.8283 13.675 39.47C14.675 39.6583 15.0417 39.04 15.0417 38.5083C15.0417 38.0333 15.025 36.775 15.0167 35.1083C9.45333 36.315 8.28 32.425 8.28 32.425C7.37 30.1167 6.055 29.5 6.055 29.5C4.24333 28.26 6.195 28.285 6.195 28.285C8.20333 28.425 9.25833 30.345 9.25833 30.345C11.0417 33.4033 13.94 32.52 15.0833 32.0083C15.2633 30.715 15.7783 29.8333 16.35 29.3333C11.9083 28.8333 7.24 27.1133 7.24 19.45C7.24 17.2667 8.015 15.4833 9.29833 14.0833C9.07333 13.5783 8.39833 11.545 9.47333 8.79C9.47333 8.79 11.1483 8.25333 14.9733 10.84C16.5733 10.395 18.2733 10.175 19.9733 10.165C21.6733 10.175 23.3733 10.395 24.9733 10.84C28.7733 8.25333 30.4483 8.79 30.4483 8.79C31.5233 11.545 30.8483 13.5783 30.6483 14.0833C31.9233 15.4833 32.6983 17.2667 32.6983 19.45C32.6983 27.1333 28.0233 28.825 23.5733 29.3167C24.2733 29.9167 24.9233 31.1433 24.9233 33.0167C24.9233 35.6933 24.8983 37.8433 24.8983 38.4933C24.8983 39.0183 25.2483 39.6433 26.2733 39.4433C34.275 36.82 40 29.32 40 20.495C40 9.45 31.045 0.494995 20 0.494995Z" />
</g>
<defs>
<clipPath id="clip0_49_6">
<rect width="40" height="40" fill="transparent"/>
</clipPath>
</defs>
</symbol>
<!-- <<<LINK>>> -->
<symbol id="link" viewBox="0 0 40 40" >
<path d="M26.2134 6.47334C28.6034 4.07334 32.1001 4.02334 34.0367 5.96667C35.9767 7.91334 35.9234 11.4333 33.5317 13.8333L29.4917 17.8883C29.2577 18.1233 29.1265 18.4416 29.1272 18.7732C29.1278 19.1048 29.2601 19.4226 29.4951 19.6567C29.73 19.8907 30.0483 20.0219 30.3799 20.0212C30.7115 20.0206 31.0293 19.8883 31.2634 19.6533L35.3034 15.5983C38.4867 12.4 38.8867 7.29501 35.8084 4.20167C32.7251 1.10667 27.6301 1.51001 24.4417 4.70834L16.3634 12.82C13.1767 16.0183 12.7767 21.1233 15.8584 24.215C15.9726 24.338 16.1104 24.4368 16.2636 24.5054C16.4168 24.574 16.5823 24.611 16.7501 24.6143C16.9179 24.6176 17.0847 24.587 17.2404 24.5244C17.3962 24.4619 17.5378 24.3686 17.6567 24.2501C17.7756 24.1316 17.8694 23.9904 17.9326 23.8349C17.9958 23.6794 18.027 23.5127 18.0243 23.3449C18.0217 23.177 17.9853 23.0114 17.9172 22.858C17.8492 22.7045 17.751 22.5663 17.6284 22.4517C15.6901 20.505 15.7417 16.985 18.1334 14.585L26.2134 6.47334Z"/>
<path d="M24.1417 15.7833C23.9074 15.5484 23.5894 15.4162 23.2576 15.4157C22.9258 15.4152 22.6075 15.5466 22.3725 15.7808C22.1376 16.0151 22.0053 16.3331 22.0049 16.6649C22.0044 16.9967 22.1357 17.3151 22.37 17.55C24.31 19.4967 24.2567 23.015 21.865 25.4167L13.7834 33.5267C11.3934 35.9267 7.89668 35.9767 5.96002 34.0333C4.02169 32.0867 4.07335 28.5667 6.46502 26.1667L10.505 22.1117C10.6242 21.9962 10.7193 21.8581 10.7845 21.7055C10.8498 21.5529 10.8841 21.3889 10.8853 21.2229C10.8865 21.0569 10.8546 20.8924 10.7915 20.7389C10.7285 20.5853 10.6355 20.4459 10.5179 20.3287C10.4004 20.2115 10.2607 20.1189 10.107 20.0563C9.95332 19.9936 9.78868 19.9622 9.62271 19.9639C9.45675 19.9656 9.29278 20.0003 9.14037 20.066C8.98796 20.1317 8.85016 20.2271 8.73502 20.3467L4.69502 24.4017C1.51002 27.6 1.11002 32.705 4.19169 35.8C7.27502 38.8967 12.37 38.4917 15.5567 35.2933L23.6367 27.1817C26.82 23.985 27.22 18.8783 24.1417 15.7867V15.7833Z" />
</symbol>

<!-- <<<HOME>>> -->
<symbol id="home" viewBox="0 0 40 40" >
<g clip-path="url(#clip0_46_43)">
<path d="M33.9998 20.6667C33.9998 19.5621 33.1043 18.6667 31.9998 18.6667H7.99976C6.89519 18.6667 5.99976 19.5621 5.99976 20.6667V36.6667C5.99976 37.7713 6.89519 38.6667 7.99976 38.6667H12.9088C14.0134 38.6667 14.9088 37.7713 14.9088 36.6667V26.381C14.9088 25.2764 15.8043 24.381 16.9088 24.381H23.0907C24.1952 24.381 25.0907 25.2764 25.0907 26.381V36.6667C25.0907 37.7713 25.9861 38.6667 27.0907 38.6667H31.9998C33.1043 38.6667 33.9998 37.7713 33.9998 36.6667V20.6667Z" />
<path d="M18.7236 1.05819C19.4639 0.444466 20.5361 0.444466 21.2764 1.05819L38.2469 15.127C39.6889 16.3224 38.8436 18.6667 36.9705 18.6667H3.02955C1.15642 18.6667 0.311069 16.3224 1.75311 15.127L18.7236 1.05819Z" />
</g>
<defs>
<clipPath id="clip0_46_43">
<rect width="40" height="40" />
</clipPath>
</defs>

</symbol>


<!-- <<<PROJECTS>>> -->

<symbol id="projects" viewBox="0 0 40 40">
<rect x="2" y="3" width="14.4" height="14.4" rx="2" />
<rect x="2" y="24.6" width="14.4" height="14.4" rx="2" />
<rect x="23.6" y="3" width="14.4" height="14.4" rx="2" />
<rect x="23.6" y="24.6" width="14.4" height="14.4" rx="2" />
</symbol>


<!-- <<<CONTACTS>>> -->

<symbol id="contacts" viewBox="0 0 40 40" >
<path d="M2.16676 9.4183C3.69448 5.75177 34.5545 6.66844 36.3877 9.4183C38.221 12.1682 38.8322 19.5013 36.3877 22.5567C33.9433 25.6121 14.9995 22.5567 11.9442 22.5567C8.8889 22.5567 10.1109 33.2508 10.1109 33.2508C10.1109 33.2508 0.639034 13.0848 2.16676 9.4183Z"/>
<ellipse cx="3.05544" cy="3.05545" rx="3.05544" ry="3.05545" transform="matrix(-1 0 0 1 35.4713 12.4738)" />
<ellipse cx="3.05544" cy="3.05545" rx="3.05544" ry="3.05545" transform="matrix(-1 0 0 1 27.5271 12.4738)" />
<ellipse cx="3.05544" cy="3.05545" rx="3.05544" ry="3.05545" transform="matrix(-1 0 0 1 19.583 12.4738)" />
</symbol>

<!-- <<<ABOUT>>> -->



<symbol id="about" viewBox="0 0 40 40" >
<path d="M13.4131 6.69565L3.56522 6.69565C2.70077 6.69565 2 7.39643 2 8.26087V36.4348C2 37.2992 2.70077 38 3.56522 38H28.6087C29.4731 38 30.1739 37.2992 30.1739 36.4348V28.7096C29.9174 28.8371 29.6564 28.957 29.3913 29.069V36.4348C29.3913 36.867 29.0409 37.2174 28.6087 37.2174H3.56522C3.13299 37.2174 2.78261 36.867 2.78261 36.4348V8.26087C2.78261 7.82865 3.13299 7.47826 3.56522 7.47826H12.7617C12.9695 7.20951 13.1868 6.94847 13.4131 6.69565Z"/>
<circle cx="23.913" cy="16.087" r="14.087"/>
<path d="M21.2551 20.3403V20.2256C21.2721 19.0083 21.4422 18.0395 21.7653 17.3193C22.0884 16.5991 22.5476 16.0159 23.1429 15.5698C23.7381 15.1236 24.4524 14.7126 25.2857 14.3365C25.7874 14.1071 26.2381 13.8362 26.6378 13.5239C27.0374 13.2052 27.352 12.8388 27.5816 12.4245C27.8197 12.0102 27.9388 11.5513 27.9388 11.0478C27.9388 10.4232 27.7432 9.88145 27.352 9.42256C26.9609 8.96367 26.4379 8.60994 25.7832 8.36138C25.1284 8.11281 24.4014 7.98853 23.602 7.98853C22.9048 7.98853 22.233 8.09688 21.5867 8.31358C20.9405 8.53027 20.4005 8.87126 19.9668 9.33652C19.5332 9.80178 19.2823 10.4105 19.2143 11.1625H16C16.068 10.079 16.4422 9.15169 17.1224 8.3805C17.8112 7.60931 18.7168 7.01976 19.8393 6.61185C20.9702 6.20395 22.2245 6 23.602 6C25.0986 6 26.3997 6.22307 27.5051 6.66922C28.619 7.11536 29.4779 7.72722 30.0816 8.50478C30.6939 9.28234 31 10.1683 31 11.1625C31 11.8636 30.8554 12.4978 30.5663 13.065C30.2857 13.6322 29.8775 14.1389 29.3418 14.5851C28.8146 15.0312 28.1769 15.4264 27.4286 15.7706C26.6803 16.1211 26.0808 16.4908 25.6301 16.8795C25.1794 17.262 24.852 17.7177 24.648 18.2467C24.4439 18.7757 24.3333 19.4353 24.3163 20.2256V20.3403H21.2551ZM22.8878 26C22.2585 26 21.7185 25.8311 21.2679 25.4933C20.8172 25.1555 20.5918 24.7508 20.5918 24.2792C20.5918 23.8075 20.8172 23.4028 21.2679 23.065C21.7185 22.7272 22.2585 22.5583 22.8878 22.5583C23.517 22.5583 24.057 22.7272 24.5077 23.065C24.9583 23.4028 25.1837 23.8075 25.1837 24.2792C25.1837 24.5915 25.0774 24.8783 24.8648 25.1396C24.6607 25.4009 24.3844 25.6112 24.0357 25.7706C23.6956 25.9235 23.3129 26 22.8878 26Z"/>
<rect x="3.56519" y="11.3913" width="5.47826" height="1.56522" rx="0.782609"/>
<rect x="3.56519" y="16.8696" width="4.69565" height="1.56522" rx="0.782609"/>
<rect x="3.56519" y="22.3478" width="6.26087" height="1.56522" rx="0.782609"/>
<rect x="3.56519" y="27.8261" width="10.1739" height="1.56522" rx="0.782609"/>
<rect x="3.56519" y="33.3043" width="24.2609" height="1.56522" rx="0.782609"/>
</symbol>


<symbol id="logo" viewBox="0 0 40 40" >
<path d="M38 4C38 2.89543 37.1046 2 36 2H4C2.89543 2 2 2.89543 2 4V36C2 37.1046 2.89543 38 4 38H12.8571C13.9617 38 14.8571 37.1046 14.8571 36V16.8571C14.8571 15.7526 15.7526 14.8571 16.8571 14.8571H36C37.1046 14.8571 38 13.9617 38 12.8571V4Z" />
<rect x="26.4286" y="26.4286" width="11.5714" height="11.5714" rx="2" />
</symbol>



<symbol id="phone" viewBox="0 0 40 40" >
<path d="M12.8267 18.3867C14.7467 22.16 17.84 25.24 21.6133 27.1733L24.5467 24.24C24.9067 23.88 25.44 23.76 25.9067 23.92C27.4 24.4133 29.0133 24.68 30.6667 24.68C31.4 24.68 32 25.28 32 26.0133V30.6667C32 31.4 31.4 32 30.6667 32C18.1467 32 8 21.8533 8 9.33333C8 8.6 8.6 8 9.33333 8H14C14.7333 8 15.3333 8.6 15.3333 9.33333C15.3333 11 15.6 12.6 16.0933 14.0933C16.24 14.56 16.1333 15.08 15.76 15.4533L12.8267 18.3867Z" />

</symbol>

<symbol id="share" viewBox="0 0 40 40" >
<path d="M22.6266 28.785L14.11 24.14C13.2925 24.9515 12.253 25.5028 11.1226 25.7244C9.99224 25.946 8.82157 25.8279 7.75818 25.3852C6.69479 24.9424 5.78629 24.1947 5.14722 23.2363C4.50815 22.278 4.16711 21.1519 4.16711 20C4.16711 18.8481 4.50815 17.722 5.14722 16.7637C5.78629 15.8053 6.69479 15.0576 7.75818 14.6148C8.82157 14.1721 9.99224 14.054 11.1226 14.2756C12.253 14.4972 13.2925 15.0485 14.11 15.86L22.6266 11.215C22.3345 9.84456 22.5455 8.41477 23.221 7.18709C23.8964 5.95941 24.9912 5.01589 26.3051 4.52906C27.6191 4.04223 29.0643 4.04462 30.3767 4.53581C31.689 5.027 32.7806 5.97415 33.452 7.20406C34.1234 8.43398 34.3296 9.86446 34.0329 11.2339C33.7363 12.6034 32.9566 13.8203 31.8365 14.6622C30.7163 15.504 29.3306 15.9145 27.9327 15.8187C26.5347 15.7228 25.218 15.1269 24.2233 14.14L15.7066 18.785C15.8763 19.5856 15.8763 20.4128 15.7066 21.2133L24.2233 25.86C25.218 24.8731 26.5347 24.2772 27.9327 24.1813C29.3306 24.0855 30.7163 24.496 31.8365 25.3378C32.9566 26.1797 33.7363 27.3966 34.0329 28.7661C34.3296 30.1355 34.1234 31.566 33.452 32.7959C32.7806 34.0259 31.689 34.973 30.3767 35.4642C29.0643 35.9554 27.6191 35.9578 26.3051 35.4709C24.9912 34.9841 23.8964 34.0406 23.221 32.8129C22.5455 31.5852 22.3345 30.1554 22.6266 28.785Z" />

</symbol>
<symbol id="arrowDown" viewBox="0 0 16 10" >
<path d="M6.58579 8.58579L1.41421 3.41421C0.154284 2.15428 1.04662 0 2.82843 0H13.1716C14.9534 0 15.8457 2.15428 14.5858 3.41421L9.41421 8.58579C8.63317 9.36684 7.36684 9.36684 6.58579 8.58579Z"/>
</symbol>

<symbol id="vk" viewBox="0 0 74 74" >
<path d="M36.9045 0C16.5225 0 0 16.5225 0 36.9045C0 57.2866 16.5225 73.809 36.9045 73.809C57.2866 73.809 73.809 57.2866 73.809 36.9045C73.809 16.5225 57.2866 0 36.9045 0ZM51.0974 41.6368C51.0974 41.6368 54.3611 44.8582 55.1646 46.3536C55.1876 46.3844 55.1992 46.4151 55.2069 46.4305C55.5336 46.9802 55.6105 47.4069 55.449 47.726C55.18 48.2565 54.2573 48.5179 53.9421 48.541H48.1758C47.776 48.541 46.9379 48.4372 45.9231 47.7375C45.1427 47.1917 44.3738 46.296 43.6242 45.4233C42.5056 44.124 41.5368 43.0015 40.5604 43.0015C40.4364 43.0012 40.3131 43.0207 40.1952 43.0591C39.4571 43.2975 38.5114 44.3508 38.5114 47.1571C38.5114 48.0335 37.8194 48.5371 37.3312 48.5371H34.6903C33.7907 48.5371 29.1046 48.2219 24.9528 43.8433C19.8708 38.4807 15.2962 27.7245 15.2577 27.6246C14.9694 26.9288 15.5653 26.5559 16.2149 26.5559H22.0389C22.8155 26.5559 23.0692 27.0287 23.246 27.4477C23.4536 27.936 24.2147 29.8773 25.4641 32.0608C27.49 35.6206 28.7317 37.066 29.7274 37.066C29.9141 37.0638 30.0974 37.0163 30.2617 36.9276C31.5611 36.2049 31.3189 31.5726 31.2612 30.6115C31.2612 30.4309 31.2574 28.5395 30.5923 27.6323C30.1156 26.9749 29.3045 26.725 28.8124 26.6328C29.0116 26.3579 29.274 26.1351 29.5774 25.9831C30.4693 25.5372 32.0762 25.4718 33.6715 25.4718H34.5595C36.2894 25.4949 36.7354 25.6064 37.362 25.764C38.6306 26.0677 38.6575 26.8865 38.546 29.6889C38.5114 30.4847 38.4768 31.3842 38.4768 32.4452C38.4768 32.6759 38.4653 32.9219 38.4653 33.1833C38.4268 34.6095 38.3807 36.2279 39.3879 36.893C39.5193 36.9754 39.6711 37.0193 39.8261 37.0198C40.176 37.0198 41.2293 37.0198 44.0817 32.1262C44.9614 30.551 45.7258 28.9142 46.369 27.2286C46.4267 27.1287 46.5958 26.8211 46.7957 26.702C46.9432 26.6267 47.1068 26.5885 47.2724 26.5905H54.1189C54.8647 26.5905 55.376 26.702 55.4721 26.9903C55.6413 27.4477 55.4414 28.8432 52.316 33.0757L50.9206 34.9171C48.0874 38.6306 48.0874 38.8189 51.0974 41.6368Z"/>
</symbol>

<symbol id="telegram" viewBox="0 0 77 77" >
<path d="M38.4422 0C17.2111 0 0 17.2111 0 38.4422C0 59.6733 17.2111 76.8844 38.4422 76.8844C59.6733 76.8844 76.8844 59.6733 76.8844 38.4422C76.8844 17.2111 59.6733 0 38.4422 0ZM56.2608 26.1438C55.6823 32.2225 53.1791 46.9736 51.905 53.7819C51.3662 56.6626 50.305 57.6286 49.278 57.723C47.0458 57.9285 45.3503 56.2478 43.1881 54.8304C39.8047 52.6125 37.8933 51.2318 34.609 49.0676C30.8136 46.5665 33.2741 45.1924 35.4371 42.9448C36.0031 42.3568 45.8392 33.4102 46.0296 32.5985C46.0533 32.497 46.0761 32.118 45.8507 31.919C45.6253 31.7199 45.2942 31.7874 45.0547 31.8415C44.7155 31.9186 39.3104 35.4911 28.8396 42.5591C27.3055 43.6125 25.9159 44.1258 24.6708 44.099C23.2981 44.0693 20.6579 43.323 18.695 42.6848C16.2876 41.9023 14.3741 41.4886 14.5408 40.1596C14.6276 39.4672 15.5809 38.7593 17.4007 38.0359C28.6074 33.1534 36.0803 29.9343 39.8193 28.3789C50.4951 23.9383 52.7134 23.167 54.1593 23.1413C54.4774 23.136 55.1884 23.2148 55.649 23.5885C55.9553 23.8547 56.1506 24.2262 56.1962 24.6295C56.2742 25.1303 56.2959 25.6382 56.2608 26.1438Z"/>
</symbol>

<symbol id="whatsapp" viewBox="0 0 77 77" >
<path fill-rule="evenodd" clip-rule="evenodd" d="M62.0856 14.3889C58.9758 11.2776 55.2813 8.81212 51.2148 7.13439C47.1483 5.45665 42.7901 4.59981 38.3911 4.61319C19.9299 4.61319 4.90135 19.5666 4.89385 37.9498C4.88568 43.8034 6.42867 49.5547 9.36576 54.6181L4.61304 71.8871L22.37 67.2515C27.2853 69.9142 32.7875 71.3079 38.3776 71.3059H38.3911C56.8509 71.3059 71.8779 56.351 71.8869 37.9693C71.8981 33.5853 71.0373 29.2429 69.3547 25.1947C67.672 21.1465 65.2011 17.4733 62.0856 14.3889ZM38.3911 65.6792H38.3791C33.3957 65.6807 28.5029 64.3471 24.2096 61.817L23.1929 61.2163L12.6559 63.9674L15.4685 53.7426L14.8062 52.6915C12.0197 48.2799 10.5434 43.1677 10.5491 37.9498C10.5491 22.6735 23.0443 10.2444 38.4016 10.2444C45.7687 10.2312 52.8393 13.1449 58.0584 18.3444C63.2774 23.544 66.2174 30.6037 66.2317 37.9708C66.2257 53.2486 53.7365 65.6792 38.3911 65.6792ZM53.6614 44.928C52.825 44.5105 48.7059 42.4953 47.9431 42.2175C47.1803 41.9397 46.6172 41.8 46.06 42.6349C45.5029 43.4699 43.8977 45.3379 43.4096 45.901C42.9216 46.4641 42.4336 46.5257 41.5971 46.1083C40.7607 45.6908 38.0623 44.8123 34.8653 41.9742C32.377 39.7653 30.6982 37.0383 30.2101 36.2049C29.7221 35.3715 30.1576 34.9195 30.5765 34.505C30.9535 34.1311 31.413 33.5319 31.8319 33.0454C32.2509 32.5589 32.3905 32.2105 32.6683 31.6549C32.9461 31.0993 32.808 30.6127 32.5993 30.1968C32.3905 29.7808 30.7162 25.6798 30.0194 24.0115C29.3392 22.3867 28.6499 22.6075 28.1364 22.5819C27.6483 22.5579 27.0852 22.5519 26.5311 22.5519C26.1075 22.5629 25.6907 22.6611 25.3068 22.8405C24.9229 23.0198 24.58 23.2763 24.2997 23.594C23.5323 24.4289 21.3699 26.4472 21.3699 30.5437C21.3699 34.6402 24.3732 38.6045 24.7877 39.1601C25.2021 39.7157 30.6892 48.1295 39.0849 51.7379C40.6439 52.4056 42.2368 52.991 43.8571 53.4919C45.8618 54.1256 47.6863 54.037 49.1279 53.8222C50.7362 53.5835 54.0834 51.807 54.7786 49.8609C55.4739 47.9147 55.4754 46.2479 55.2667 45.901C55.0579 45.5541 54.4993 45.3439 53.6614 44.928Z"/>
</symbol>

<symbol id="viber" viewBox="0 0 77 78" >
<path d="M65.979 7.48757C64.0719 5.73064 56.3535 0.129486 39.1446 0.0544034C39.1446 0.0544034 18.8573 -1.16193 8.97644 7.90803C3.4804 13.4041 1.54328 21.4679 1.33305 31.4539C1.12282 41.4398 0.867535 60.1504 18.9023 65.226H18.9174L18.9023 72.9745C18.9023 72.9745 18.7822 76.1129 20.8545 76.7436C23.3472 77.5245 24.8188 75.1368 27.2065 72.569C28.5129 71.1575 30.3149 69.0852 31.6814 67.5085C44.0249 68.5446 53.5003 66.172 54.5815 65.8266C57.0743 65.0157 71.1747 63.2138 73.4572 44.5032C75.8298 25.192 72.316 12.9986 65.979 7.48757ZM68.0663 43.0917C66.1292 58.7088 54.7016 59.6999 52.5993 60.3756C51.6983 60.6609 43.3642 62.7332 32.8977 62.0575C32.8977 62.0575 25.0891 71.4728 22.6565 73.9205C21.8606 74.7164 20.9896 74.6413 21.0046 73.0646C21.0046 72.0284 21.0647 60.1954 21.0647 60.1954C21.0497 60.1954 21.0497 60.1954 21.0647 60.1954C5.77793 55.9608 6.67892 40.0283 6.8441 31.6941C7.00928 23.36 8.58601 16.5275 13.2411 11.9324C21.6053 4.34912 38.8292 5.47536 38.8292 5.47536C53.3802 5.53542 60.3478 9.92024 61.9696 11.3919C67.3305 15.9869 70.0635 26.979 68.0663 43.0917ZM47.1934 30.9583C47.2535 32.2498 45.3163 32.3399 45.2563 31.0484C45.0911 27.7448 43.5444 26.138 40.3609 25.9578C39.0695 25.8828 39.1896 23.9456 40.466 24.0207C44.6556 24.246 46.9832 26.6486 47.1934 30.9583ZM50.2418 32.6552C50.3919 26.2882 46.4125 21.3027 38.8592 20.7471C37.5828 20.657 37.718 18.7199 38.9944 18.81C47.704 19.4407 52.3441 25.4323 52.1789 32.7003C52.1639 33.9917 50.2117 33.9316 50.2418 32.6552ZM57.2995 34.6674C57.3145 35.9588 55.3624 35.9738 55.3624 34.6824C55.2723 22.444 47.1183 15.7767 37.2225 15.7016C35.9461 15.6866 35.9461 13.7645 37.2225 13.7645C48.2896 13.8395 57.1944 21.4829 57.2995 34.6674ZM55.6026 49.3986V49.4286C53.9809 52.2817 50.9475 55.4352 47.8241 54.4291L47.7941 54.3841C44.6256 53.4981 37.1624 49.6539 32.4472 45.8997C30.0145 43.9776 27.7921 41.7101 26.0802 39.5327C24.5335 37.5956 22.9718 35.2981 21.4551 32.5351C18.2566 26.7537 17.5509 24.1709 17.5509 24.1709C16.5447 21.0475 19.6832 18.0141 22.5513 16.3923H22.5814C23.9629 15.6716 25.2843 15.9118 26.1703 16.978C26.1703 16.978 28.0324 19.2004 28.8282 20.2966C29.5791 21.3178 30.5852 22.9545 31.1107 23.8706C32.0267 25.5074 31.4561 27.1742 30.5551 27.8649L28.7532 29.3065C27.8371 30.0423 27.9573 31.4088 27.9573 31.4088C27.9573 31.4088 30.6302 41.5149 40.6162 44.0677C40.6162 44.0677 41.9827 44.1879 42.7185 43.2719L44.1601 41.4699C44.8508 40.5689 46.5177 39.9983 48.1545 40.9143C50.3619 42.1606 53.17 44.0978 55.032 45.8547C56.0832 46.7106 56.3234 48.0171 55.6026 49.3986Z"/>
</symbol>
<symbol id="target" viewBox="0 0 101 101" >
<path d="M82.2 48.1h-5.3c-1.1-12.7-11.3-22.8-24-24v-5.3c0-1.3-1.1-2.4-2.4-2.4s-2.4 1.1-2.4 2.4v5.3c-12.7 1.1-22.8 11.3-24 24h-5.3c-1.3 0-2.4 1.1-2.4 2.4s1.1 2.4 2.4 2.4h5.3c1.1 12.7 11.3 22.8 24 24v5.3c0 1.3 1.1 2.4 2.4 2.4s2.4-1.1 2.4-2.4v-5.3c12.7-1.1 22.8-11.3 24-24h5.3c1.3 0 2.4-1.1 2.4-2.4s-1.1-2.4-2.4-2.4zm-19.9 4.8H72C71 63 63 71 52.9 72.1v-9.7c0-1.3-1.1-2.4-2.4-2.4s-2.4 1.1-2.4 2.4v9.7C38 71 30 63 28.9 52.9h9.7c1.3 0 2.4-1.1 2.4-2.4s-1.1-2.4-2.4-2.4h-9.7C30 38 38 30 48.1 28.9v9.7c0 1.3 1.1 2.4 2.4 2.4s2.4-1.1 2.4-2.4v-9.7C63 30 71 38 72.1 48.1h-9.7c-1.3 0-2.4 1.1-2.4 2.4s1 2.4 2.3 2.4z" />
</symbol>



<symbol id="cart" viewBox="0 0 92 92" >
 <path d="M91.8 27.3L81.1 61c-.8 2.4-2.9 4-5.4 4H34.4c-2.4 0-4.7-1.5-5.5-3.7L13.1 19H4c-2.2 0-4-1.8-4-4s1.8-4 4-4h11.9c1.7 0 3.2 1.1 3.8 2.7L36 57h38l8.5-27H35.4c-2.2 0-4-1.8-4-4s1.8-4 4-4H88c1.3 0 2.5.7 3.2 1.7.8 1 1 2.4.6 3.6zm-55.4 43c-1.7 0-3.4.7-4.6 1.9-1.2 1.2-1.9 2.9-1.9 4.6 0 1.7.7 3.4 1.9 4.6 1.2 1.2 2.9 1.9 4.6 1.9s3.4-.7 4.6-1.9c1.2-1.2 1.9-2.9 1.9-4.6 0-1.7-.7-3.4-1.9-4.6-1.2-1.2-2.9-1.9-4.6-1.9zm35.9 0c-1.7 0-3.4.7-4.6 1.9s-1.9 2.9-1.9 4.6c0 1.7.7 3.4 1.9 4.6 1.2 1.2 2.9 1.9 4.6 1.9 1.7 0 3.4-.7 4.6-1.9 1.2-1.2 1.9-2.9 1.9-4.6 0-1.7-.7-3.4-1.9-4.6s-2.9-1.9-4.6-1.9z"/>
</symbol>

<symbol id="gear" viewBox="0 0 39 53">
<path d="M19.6846 35.8041C14.5044 35.8041 10.3603 31.66 10.3603 26.4798C10.3603 21.2997 14.5044 17.1556 19.6846 17.1556C24.8647 17.1556 29.0088 21.2997 29.0088 26.4798C29.0088 31.66 24.8647 35.8041 19.6846 35.8041ZM19.6846 19.2276C15.644 19.2276 12.4324 22.4393 12.4324 26.4798C12.4324 30.5204 15.644 33.7321 19.6846 33.7321C23.7251 33.7321 26.9368 30.5204 26.9368 26.4798C26.9368 22.4393 23.7251 19.2276 19.6846 19.2276Z" />
<path d="M22.4819 46.1644H16.8873L15.3332 41.3987C14.2972 41.0879 13.2612 40.6735 12.3288 40.1555L7.77023 42.4347L3.83331 38.4978L6.11258 33.9393C5.59456 33.0069 5.18015 31.9708 4.86934 30.9348L0 29.2771V23.6826L4.76574 22.1285C5.07655 21.0925 5.49096 20.0565 6.00897 19.124L3.72971 14.5655L7.66662 10.6286L12.2252 12.9079C13.1576 12.3899 14.1936 11.9754 15.2296 11.6646L16.8873 6.79529H22.4819L24.0359 11.561C25.0719 11.8718 26.108 12.2862 27.0404 12.8043L31.5989 10.525L35.5358 14.4619L33.2566 19.0204C33.7746 19.9529 34.189 20.9889 34.4998 22.0249L39.2655 23.579V29.1735L34.4998 30.7276C34.189 31.7636 33.7746 32.7996 33.2566 33.7321L35.5358 38.2906L31.5989 42.2275L27.0404 39.9483C26.108 40.4663 25.0719 40.8807 24.0359 41.1915L22.4819 46.1644ZM18.3377 44.0924H21.0314L22.4819 39.6374L22.9999 39.5338C24.2431 39.223 25.3827 38.705 26.5224 38.0834L27.0404 37.7726L31.1845 39.8447L33.0494 37.9798L30.9773 33.8357L31.2881 33.3177C31.9097 32.2816 32.4277 31.0384 32.7385 29.7952L32.8422 29.2771L37.2971 27.8267V25.133L32.8422 23.6826L32.7385 23.1646C32.4277 21.9213 31.9097 20.7817 31.2881 19.6421L30.9773 19.124L33.0494 14.9799L31.1845 13.1151L27.0404 15.1871L26.5224 14.8763C25.3827 14.2547 24.2431 13.7367 22.9999 13.4259L22.4819 13.3223L21.0314 8.86735H18.3377L16.8873 13.3223L16.3693 13.4259C15.126 13.7367 13.9864 14.2547 12.8468 14.8763L12.3288 15.1871L8.18464 13.1151L6.31978 14.9799L8.39184 19.124L8.08103 19.6421C7.45942 20.6781 6.9414 21.9213 6.63059 23.1646L6.52699 23.6826L2.07206 25.133V27.8267L6.52699 29.2771L6.63059 29.7952C6.9414 31.0384 7.45942 32.178 8.08103 33.3177L8.39184 33.8357L6.31978 37.9798L8.18464 39.8447L12.3288 37.7726L12.8468 38.0834C13.9864 38.705 15.126 39.223 16.3693 39.5338L16.8873 39.6374L18.3377 44.0924Z"/>
</symbol>

</svg>
